PathFileType	4	(X/Y/Z)	C:\Users\Basilio\Documents\Thesis Gigler\squatting_fais\c3dfiles\054\SJ_pre3\markers_experimental.trc
DataRate	CameraRate	NumFrames	NumMarkers	Units	OrigDataRate	OrigDataStartFrame	OrigNumFrames
200.000000	200.000000	4	61	mm	200.000000	448	1794
Frame#	Time	FHD			LBHD			RBHD			C7			T10			CLAV			LSHO			LUUPA			LMUPA			LDUPA			LLEP			LMEP			LRAD			LUL			LRFIN			RSHO			RUPA1			RMUPA			RDUPA			RLEP			RMEP			RRAD			RUL			RUFIN			LASI			RASI			USACR			LSACR			RSACR			LTHI1			LTHI2			LTHI3			LTHI4			LLFC			LMFC			LTIB1			LTIB2			LTIB3			LTIB4			LLMAL			LMMAL			LHEE			LMT1			LMT2			LMT5			RTHI			RTHI2			RTHI3			RTHI4			RLFC			RMFC			RTIB1			RTIB2			RTIB3			RTIB4			RLMAL			RMMAL			RHEE			RMT1			RMT2			RMT5			
		X1	Y1	Z1	X2	Y2	Z2	X3	Y3	Z3	X4	Y4	Z4	X5	Y5	Z5	X6	Y6	Z6	X7	Y7	Z7	X8	Y8	Z8	X9	Y9	Z9	X10	Y10	Z10	X11	Y11	Z11	X12	Y12	Z12	X13	Y13	Z13	X14	Y14	Z14	X15	Y15	Z15	X16	Y16	Z16	X17	Y17	Z17	X18	Y18	Z18	X19	Y19	Z19	X20	Y20	Z20	X21	Y21	Z21	X22	Y22	Z22	X23	Y23	Z23	X24	Y24	Z24	X25	Y25	Z25	X26	Y26	Z26	X27	Y27	Z27	X28	Y28	Z28	X29	Y29	Z29	X30	Y30	Z30	X31	Y31	Z31	X32	Y32	Z32	X33	Y33	Z33	X34	Y34	Z34	X35	Y35	Z35	X36	Y36	Z36	X37	Y37	Z37	X38	Y38	Z38	X39	Y39	Z39	X40	Y40	Z40	X41	Y41	Z41	X42	Y42	Z42	X43	Y43	Z43	X44	Y44	Z44	X45	Y45	Z45	X46	Y46	Z46	X47	Y47	Z47	X48	Y48	Z48	X49	Y49	Z49	X50	Y50	Z50	X51	Y51	Z51	X52	Y52	Z52	X53	Y53	Z53	X54	Y54	Z54	X55	Y55	Z55	X56	Y56	Z56	X57	Y57	Z57	X58	Y58	Z58	X59	Y59	Z59	X60	Y60	Z60	X61	Y61	Z61	

449	2.24	-192.8757019042969	1752.122802734375	-886.5535278320315	-343.5538330078126	1676.9140625	-961.0533447265627	-363.3635253906251	1671.603637695313	-822.286560058594	-379.0551147460938	1529.564575195313	-882.5233154296877	-440.7880859375001	1195.47314453125	-897.425476074219	-243.9252014160157	1454.122192382813	-886.9187011718752	-295.9544372558594	1520.989379882813	-1045.837524414063	-410.5223388671876	1391.821044921875	-1214.295166015625	-374.0596313476563	1354.230224609375	-1222.172607421875	-422.7712707519532	1335.692993164063	-1254.09814453125	-421.8931274414064	1271.459594726563	-1272.702514648438	-492.5830993652345	1260.237915039063	-1220.122436523438	-400.2601013183595	1055.225952148438	-1122.248168945313	-360.3178710937501	1019.061279296875	-1176.838256835938	-341.1777343750001	1066.176025390625	-1093.707153320313	-290.2102661132813	1512.919555664063	-721.6767578125001	-401.3827514648439	1376.353637695313	-554.5687866210939	-378.0268554687501	1333.507080078125	-550.7066040039064	-429.4716796875001	1320.866088867188	-520.8963623046876	-441.0783691406251	1271.773315429688	-506.5939025878907	-505.4707641601564	1269.566528320313	-565.1535034179689	-414.6833496093751	1063.068603515625	-686.2712402343751	-348.9539184570313	1077.758422851563	-702.4204711914064	-375.8161010742188	1030.5458984375	-623.8311157226564	-255.1054840087891	1006.351501464844	-1020.527954101563	-262.1634826660157	1007.600646972656	-762.2714843750001	-442.8075256347657	1101.649780273438	-895.7770996093752	-448.2914123535157	1070.9306640625	-924.3408203125002	-448.901336669922	1068.958618164063	-867.8572998046877	-368.8345642089844	799.1007080078127	-1131.899780273438	-336.6455688476563	721.8490600585939	-1149.541015625	-289.6902465820313	726.2650756835939	-1149.211669921875	-364.3352966308594	666.9879760742189	-1139.5048828125	-357.2669982910157	510.5807189941407	-1146.176147460938	-296.2190551757813	481.3481750488282	-1028.864013671875	-317.0053405761719	341.5605468750001	-1143.673828125	-384.0115051269532	309.3068237304688	-1193.228637695313	-340.8412475585938	300.4977416992188	-1180.45361328125	-342.3241882324219	218.2419128417969	-1160.924438476563	-419.4118957519532	89.2793655395508	-1208.8876953125	-362.6158142089844	98.25366210937503	-1128.176147460938	-468.1386718750001	51.39625167846681	-1140.230590820313	-250.7349548339844	54.91318893432619	-1186.220458984375	-258.5819091796876	58.08822250366212	-1235.469116210938	-320.5252380371094	36.66600799560548	-1273.7587890625	-382.2918090820313	730.0176391601564	-671.6620483398439	-346.4216308593751	676.4890747070314	-658.6964111328126	-314.2484741210938	677.7803344726564	-656.6092529296876	-370.7342224121094	596.7220458984376	-673.0371704101564	-379.2923583984376	503.5423583984376	-667.1912231445314	-296.8865661621094	491.5885009765626	-774.7242431640627	-334.7443237304688	394.1971435546876	-642.1276855468751	-417.757049560547	328.7319946289063	-623.4774169921876	-372.3675231933594	318.6327514648438	-617.6495971679689	-354.6862487792969	265.1942443847657	-629.3933715820314	-425.5950012207032	91.21499633789064	-603.2301635742189	-365.8796081542969	100.2837677001953	-677.4927978515626	-468.7362670898439	47.57859802246094	-671.3846435546876	-248.2992858886719	52.97085189819337	-617.5472412109376	-261.1943664550782	56.24397659301759	-571.7756347656251	-319.8806762695313	33.94972229003907	-537.0043334960939	
450	2.245	-192.0037536621094	1752.102172851563	-886.4925537109377	-342.8409729003907	1676.841674804688	-961.0440063476565	-362.6930236816407	1671.415161132813	-822.301452636719	-378.4671630859376	1529.771728515625	-882.5317993164065	-440.9502563476564	1195.846435546875	-897.501647949219	-243.1390838623047	1453.768920898438	-886.9484863281252	-295.4924926757813	1521.156860351563	-1045.90966796875	-409.9312744140626	1392.218017578125	-1214.359375	-373.4420776367188	1354.771606445313	-1222.361206054688	-422.3726501464845	1335.837036132813	-1253.977783203125	-421.4447631835939	1271.843017578125	-1272.927490234375	-492.2749328613282	1260.800537109375	-1220.30224609375	-400.7440185546876	1055.530639648438	-1122.37158203125	-360.8957214355469	1019.364807128906	-1177.009521484375	-341.6170043945313	1066.271850585938	-1093.77490234375	-289.5625000000001	1512.86767578125	-721.6922607421876	-400.8760070800782	1376.5537109375	-554.4090576171876	-377.7265930175782	1333.674926757813	-550.6438598632814	-429.050018310547	1321.161376953125	-520.7744750976564	-440.6331787109376	1272.200073242188	-506.6466674804689	-505.211883544922	1270.015258789063	-565.0305175781251	-415.1163635253907	1063.35986328125	-686.3916015625001	-349.6047058105469	1077.8779296875	-702.5543823242189	-376.3520812988282	1030.682861328125	-624.0583496093751	-255.7051239013672	1006.141235351563	-1020.567138671875	-262.7496643066407	1007.37939453125	-762.6159057617189	-443.2139282226564	1102.054443359375	-895.956237792969	-448.9062805175782	1071.348510742188	-924.3929443359377	-449.6109924316407	1069.545654296875	-868.0773925781252	-369.4783935546876	798.9683227539065	-1132.276123046875	-337.1246032714844	721.7653808593751	-1150.053100585938	-290.0437927246094	726.3520507812501	-1149.640380859375	-364.5368957519532	666.9002685546876	-1139.902465820313	-356.9061584472657	510.4837951660157	-1146.7578125	-296.0119323730469	481.3339233398439	-1029.33251953125	-316.7706909179688	341.6430969238282	-1143.983032226563	-383.6625061035157	309.2034606933594	-1193.59033203125	-340.2659301757813	300.5209350585938	-1180.673583984375	-342.2641906738282	218.1790771484376	-1161.154296875	-419.433563232422	89.28267669677736	-1208.88818359375	-362.6258544921876	98.23059082031253	-1128.2080078125	-468.1556091308595	51.39099502563478	-1140.226196289063	-250.7122497558594	54.91085052490236	-1186.180297851563	-258.6040649414063	58.09969711303712	-1235.432495117188	-320.5156860351563	36.67020797729493	-1273.728393554688	-382.8235473632813	729.7686157226564	-671.3575439453126	-346.4107055664063	676.5300292968751	-658.3297119140626	-314.2465209960938	677.8503417968751	-656.2431030273439	-370.1336364746094	596.4248046875001	-672.5177001953126	-378.5235290527344	503.5214233398439	-666.5122070312501	-296.0027160644532	491.705780029297	-774.039489746094	-334.0116271972657	393.957489013672	-641.3034667968751	-417.168914794922	328.7909545898438	-622.9506835937501	-371.7191162109376	318.5299682617188	-617.3897705078126	-354.2746582031251	265.1445922851563	-629.0628662109376	-425.5215148925782	91.1845169067383	-603.2175903320314	-365.8471679687501	100.3463363647461	-677.4691772460939	-468.728973388672	47.54405593872071	-671.3615112304689	-248.2920227050782	52.96506500244142	-617.5413818359376	-261.1851196289063	56.25594711303712	-571.8286132812501	-319.8893127441407	33.96472930908204	-536.9844360351564	
451	2.25	-191.4115600585938	1751.82763671875	-886.470397949219	-341.9506225585938	1676.773315429688	-961.0256958007815	-361.7741699218751	1671.23095703125	-822.3177490234377	-377.7611999511719	1529.877197265625	-882.5024414062502	-441.0505981445314	1196.173828125	-897.6721191406252	-241.8180847167969	1453.827026367188	-887.012390136719	-294.7783203125001	1521.152465820313	-1045.857543945313	-409.2036437988282	1392.726440429688	-1214.520874023438	-373.0396423339844	1354.8642578125	-1222.277099609375	-422.3695678710939	1336.571411132813	-1254.11962890625	-421.2156372070314	1272.248901367188	-1273.107055664063	-492.140350341797	1261.39794921875	-1220.405395507813	-401.2182006835939	1055.851806640625	-1122.484252929688	-361.4720153808594	1019.531555175781	-1177.1591796875	-342.1844177246094	1066.367919921875	-1093.844848632813	-288.6623840332032	1512.757202148438	-721.6636352539064	-400.4442749023439	1376.682983398438	-554.3411254882814	-377.0121154785157	1333.854370117188	-550.8607788085939	-428.4616699218751	1321.37060546875	-520.7605590820314	-440.4702148437501	1272.477905273438	-506.6199645996095	-505.0181579589845	1270.471557617188	-564.9019165039064	-415.9468078613282	1063.610717773438	-686.4003906250001	-350.0468139648438	1077.807983398438	-702.6939697265626	-376.9208679199219	1030.821411132813	-624.1996459960939	-256.5136108398438	1005.970336914063	-1020.580383300781	-263.6057128906251	1007.131286621094	-762.8281250000001	-443.8038635253907	1102.514282226563	-896.125915527344	-448.4970092773439	1071.501220703125	-924.6267700195315	-451.0503234863282	1070.070068359375	-868.2854003906252	-370.1655883789063	798.8091430664065	-1132.546997070313	-337.4676208496094	721.6600952148439	-1150.360473632813	-290.4254760742188	726.4291992187501	-1150.027099609375	-364.5881347656251	666.7628784179689	-1140.35302734375	-356.5491943359376	510.3840332031251	-1147.307006835938	-295.6083374023438	481.5056152343751	-1029.942626953125	-316.6934509277344	341.5007934570313	-1144.289306640625	-383.3601074218751	309.1445312500001	-1193.88720703125	-339.9336853027344	300.3656311035157	-1181.144775390625	-342.0383605957032	218.1678466796876	-1161.28173828125	-419.4310607910157	89.27491760253908	-1208.91015625	-362.6868896484376	98.26710510253909	-1128.206909179688	-468.1950683593751	51.40057754516603	-1140.23681640625	-250.717269897461	54.93128967285158	-1186.17822265625	-258.6189880371094	58.13240814208986	-1235.418823242188	-320.5134582519532	36.68257904052735	-1273.714721679688	-383.3037414550782	729.5507202148439	-671.1055297851564	-346.6635742187501	676.6926879882814	-657.2981567382814	-314.0473937988282	678.2780761718751	-656.4269409179689	-369.6563720703126	596.2812500000001	-671.9162597656251	-377.6137390136719	503.342987060547	-665.7111816406251	-295.7076721191407	491.7051696777345	-773.0949707031252	-333.5233154296876	393.8200073242189	-640.8167724609376	-416.4778747558595	328.7908630371094	-622.4598999023439	-370.9799499511719	318.4213867187501	-616.9941406250001	-353.8942565917969	265.0245971679688	-628.7659912109376	-425.4698791503907	91.16650390625001	-603.1428833007814	-365.7919311523438	100.3356399536133	-677.4867553710939	-468.7313232421876	47.55075836181641	-671.3827514648439	-248.3204193115235	52.96524810791017	-617.5614013671876	-261.1975402832032	56.29435348510744	-571.8694458007814	-319.8971862792969	33.99512481689454	-537.0432739257814	
452	2.255	-190.5314178466797	1751.866577148438	-886.428649902344	-341.1377868652344	1676.664428710938	-961.014343261719	-360.9062500000001	1670.943481445313	-822.3079833984377	-376.6898803710938	1529.935424804688	-882.5024414062502	-441.0840759277345	1196.419311523438	-897.7470703125002	-241.6540069580079	1453.542114257813	-887.077331542969	-293.6141967773438	1520.933471679688	-1045.815673828125	-408.725555419922	1393.12939453125	-1214.639770507813	-372.5997009277344	1355.107666015625	-1222.411743164063	-421.7566223144532	1337.2158203125	-1254.422607421875	-420.9790649414064	1272.623779296875	-1273.12890625	-492.0226135253907	1262.121337890625	-1220.61572265625	-401.7720642089845	1056.198608398438	-1122.674682617188	-361.8885192871094	1019.767456054688	-1177.289428710938	-342.6294555664063	1066.456909179688	-1093.9111328125	-287.8621215820313	1512.53857421875	-721.6386718750001	-399.7471313476564	1376.875122070313	-554.3410644531251	-376.6091308593751	1333.892944335938	-550.8777465820314	-427.8724365234376	1321.627685546875	-520.7861328125001	-440.1317749023439	1272.77978515625	-506.6369018554689	-504.7378234863282	1270.986450195313	-564.8953247070314	-416.5041809082032	1063.848999023438	-686.4393310546876	-350.5863037109376	1077.807495117188	-702.8436279296876	-377.5475769042969	1030.866821289063	-624.3024291992189	-257.4017639160157	1005.685241699219	-1020.464477539063	-264.6434020996094	1006.745849609375	-763.0183105468751	-444.3560180664064	1102.896240234375	-896.261901855469	-449.9704589843751	1072.095458984375	-924.7900390625002	-452.2256164550782	1070.388061523438	-868.2751464843752	-370.6789855957032	798.7108154296877	-1132.911010742188	-337.7855224609376	721.5963134765626	-1150.825439453125	-291.1284179687501	726.6249389648439	-1150.620483398438	-364.4907836914063	666.5987548828126	-1140.896362304688	-356.1521606445313	510.3491210937501	-1147.831176757813	-295.1889953613282	481.4591064453126	-1030.4697265625	-316.1933898925782	341.5603637695313	-1144.73193359375	-383.1173400878907	309.0478210449219	-1194.2265625	-339.4277343750001	300.2297363281251	-1181.636962890625	-341.8537292480469	218.097152709961	-1161.522216796875	-419.4068908691407	89.21472167968751	-1208.929931640625	-362.7045593261719	98.28641510009768	-1128.187622070313	-468.193084716797	51.36732482910158	-1140.261596679688	-250.671127319336	54.92747879028322	-1186.1357421875	-258.5654296875001	58.15649414062501	-1235.415649414063	-320.5104675292969	36.72228622436524	-1273.709716796875	-383.5579223632813	729.2706909179689	-670.8067016601564	-346.6710205078126	676.5748291015626	-657.0513916015626	-314.1172180175782	678.2717895507814	-655.6663208007814	-369.1748352050782	596.0633544921876	-671.3980712890626	-376.9372558593751	503.3177490234376	-665.0341186523439	-294.6367492675782	491.8616638183595	-772.3894042968752	-332.7068176269532	393.6631469726564	-640.2888793945314	-415.9497985839845	328.8696899414063	-622.1796875000001	-370.2777099609376	318.3176574707032	-616.5136108398439	-353.5472106933594	264.8604431152344	-628.3752441406251	-425.4372863769532	91.16251373291017	-603.0940551757814	-365.7221374511719	100.3367538452149	-677.4508666992189	-468.7308959960939	47.5428581237793	-671.3931884765626	-248.3031616210938	52.95579910278322	-617.6450805664064	-261.2402648925782	56.31082916259767	-571.9162597656251	-319.8692626953126	34.00511550903321	-537.0606689453126	
